<svg clip-rule="evenodd" stroke-linecap="round" stroke-linejoin="round" stroke-miterlimit="10" viewBox="0 0 16 16" xmlns="http://www.w3.org/2000/svg"><g><g><path d="m2.59531 1.9978c1.97495 3.06365 7.30479 4.72973 10.02359 7.2356" fill="#07ef5b"/><path d="m2.34375 1.625c-.20599.14392-.26892.41901-.125.625 1.48279 2.05958 3.76678 3.13977 5.96875 4.28125 1.56503.8113 3.0026 1.65489 4.4375 2.6875-1.0849-.90775-2.1009-1.67763-3.28125-2.4375-2.2544-1.45127-4.83428-2.75271-6.375-5.03125-.14392-.20599-.41901-.26892-.625-.125z" fill="#242d34"/></g><g><path d="m3.6545 11.1686c3.11288-.6677 6.02608-.6011 8.9613-1.98162" fill="#07ef5b"/><path d="m12.625 9.1875s-5.7852.9448-4.53125.78125c1.00621-.13127 2.01735-.32235 3.03125-.28125.5039.02043-.9718.25797-1.46875.3437-1.23884.2139-2.50072.26-3.75.375-.25719.0237-.52472.0325-.78125.0626-.26085.0305-1.03996.1702-.78125.125 1.24565-.218.00228-.0147-.78125.125-.24649.0489-.39265.2847-.34375.5312s.28477.4239.53125.375c.74509-.2039.19251-.0363.75-.1875-.24458.0752.49926-.074.75-.125.24953-.0508.50034-.1061.75-.1563 1.23758-.2483 2.50371-.4983 3.71875-.8437.49195-.1399 1.97955-.49534 1.46875-.46875-1.0137.05277 1.4375-.65625 1.4375-.65625z" fill="#242d34"/></g><g><path d="m3.65525 11.1586c.25154-.1293.53289-.2282.79752-.3108 1.93326-.6036 4.15255-.1786 5.73613-1.87238" fill="#07ef5b"/><path d="m10.1875 8.96875s-4.41092 1.12915-3.375.90625c.87719-.18873 1.76624-.3569 2.65625-.46875-.02524-.08474.71875-.4375.71875-.4375zm-.71875.4375c.00538.01806.12814-.01862.21875-.03125-.00202-.00526.08645-.03374.0625-.03125-.09525.0099-.18626.05056-.28125.0625zm.21875-.03125c.01258.03272-.24219.14938-.375.21875-.14802.07731-.31243.16002-.46875.21875-.32269.12124-.59836.1923-.9375.25-1.01101.1721-2.05201.0764-3.0625.25-.22897.0393-.57308.1414-.8125.2187-.0997.0323-.38322.1179-.28125.0938 1.03113-.2441-.00425.0048-.28125.125-.228.1056-.32439.3657-.21875.5938.10564.228.36575.3243.59375.2187.50356-.2061.10845-.0602.5-.2187.19159-.0776.08462-.0272.25-.0938.06084-.0251.1267-.0373.1875-.0625.24168-.0775.54757-.175.71875-.2187.98764-.2525 2.0207-.3586 2.96875-.75.30606-.1264.63443-.30992.90625-.50005.14646-.10245.61159-.38425.4375-.34375-.08559.01991-.07388-.00712-.125 0z" fill="#242d34"/></g><g><path d="m2.5695 1.90443c.49643 2.68114 5.16401 6.28767 7.6432 7.10297" fill="#07ef5b"/><path d="m2.46875 1.46875c-.24426.05903-.40278.28699-.34375.53125.83682 3.22301 5.21843 6.01883 8.0938 7-2.24136-.98297-4.21364-2.5722-5.75005-4.46875-.65437-.80776-1.24172-1.69234-1.46875-2.71875-.05903-.24426-.28699-.40278-.53125-.34375z" fill="#242d34"/></g></g></svg>